<svg version="1.1" id="Layer_1" xmlns="http://www.w3.org/2000/svg" xmlns:xlink="http://www.w3.org/1999/xlink" x="0px" y="0px"
	 width="100%" viewBox="0 0 330 220" enable-background="new 0 0 330 220" xml:space="preserve">
<path fill="#DA121A" opacity="1.000000" stroke="none" 
	d="
M331.000000,74.000000 
	C331.000000,82.020897 331.000000,90.041801 330.533813,98.479050 
	C221.208603,98.884598 112.349548,98.873482 3.490496,98.868652 
	C2.660332,98.868614 1.830165,98.954330 1.000000,99.000000 
	C1.000000,90.979103 1.000000,82.958199 1.461609,74.556274 
	C2.755019,74.197784 3.586819,74.240059 4.418621,74.240089 
	C111.786903,74.243813 219.155182,74.245407 326.523468,74.235008 
	C328.015656,74.234863 329.507812,74.081726 331.000000,74.000000 
z"/>
<path fill="#DA121A" opacity="1.000000" stroke="none" 
	d="
M1.000000,148.000000 
	C1.000000,139.979095 1.000000,131.958206 1.466142,123.520950 
	C110.791351,123.115410 219.650421,123.126518 328.509491,123.131348 
	C329.339661,123.131386 330.169830,123.045677 331.000000,123.000000 
	C331.000000,131.020905 331.000000,139.041809 330.538391,147.443741 
	C329.244965,147.802216 328.413147,147.759949 327.581329,147.759918 
	C220.213058,147.756195 112.844788,147.754608 5.476521,147.765015 
	C3.984340,147.765167 2.492173,147.918274 1.000000,148.000000 
z"/>
<path fill="#DA121A" opacity="1.000000" stroke="none" 
	d="
M1.000000,49.000000 
	C1.000000,41.312424 1.000000,33.624847 1.451864,25.603882 
	C2.901172,25.311373 3.898613,25.388006 4.896059,25.388062 
	C112.113670,25.393955 219.331284,25.395699 326.548889,25.378214 
	C328.032623,25.377972 329.516296,25.131533 331.000000,25.000000 
	C331.000000,32.687576 331.000000,40.375153 330.827271,48.656395 
	C330.421600,49.414188 330.203186,49.595730 329.533569,49.850456 
	C220.875397,49.916721 112.682899,49.927532 4.490398,49.931778 
	C3.660504,49.931808 2.830606,49.842350 1.842324,49.651993 
	C1.460543,49.333378 1.232563,49.163612 1.000000,49.000000 
z"/>
<path fill="#DA121A" opacity="1.000000" stroke="none" 
	d="
M1.000000,197.000000 
	C1.000000,189.312424 1.000000,181.624832 1.172716,173.343597 
	C1.578342,172.585831 1.796768,172.404297 2.466382,172.149536 
	C111.124550,172.083282 219.317047,172.072479 327.509552,172.068237 
	C328.339447,172.068207 329.169342,172.157654 330.157654,172.348022 
	C330.539429,172.666626 330.767426,172.836395 331.000000,173.000000 
	C331.000000,180.687576 331.000000,188.375168 330.548157,196.396133 
	C329.098846,196.688629 328.101410,196.611969 327.103943,196.611923 
	C219.886337,196.606018 112.668732,196.604279 5.451126,196.621765 
	C3.967396,196.622009 2.483707,196.868454 1.000000,197.000000 
z"/>
<path fill="#FCDD09" opacity="1.000000" stroke="none" 
	d="
M331.000000,24.531307 
	C329.516296,25.131533 328.032623,25.377972 326.548889,25.378214 
	C219.331284,25.395699 112.113670,25.393955 4.896059,25.388062 
	C3.898613,25.388006 2.901172,25.311373 1.451864,25.135246 
	C1.000000,17.009268 1.000000,9.018538 1.000000,1.044639 
	C111.000008,1.044639 221.000015,1.044639 331.000000,1.044639 
	C331.000000,8.747057 331.000000,16.404837 331.000000,24.531307 
z"/>
<path fill="#FCDD09" opacity="1.000000" stroke="none" 
	d="
M2.000710,49.794678 
	C2.830606,49.842350 3.660504,49.931808 4.490398,49.931778 
	C112.682899,49.927532 220.875397,49.916721 329.778412,49.927860 
	C330.659302,49.966324 330.829651,49.983162 331.000000,50.000000 
	C331.000000,57.687576 331.000000,65.375153 331.000000,73.531364 
	C329.507812,74.081726 328.015656,74.234863 326.523468,74.235008 
	C219.155182,74.245407 111.786903,74.243813 4.418621,74.240089 
	C3.586819,74.240059 2.755019,74.197784 1.461609,74.087616 
	C1.000000,66.312424 1.000000,58.624847 1.255526,50.443375 
	C1.674271,49.897877 1.837490,49.846279 2.000710,49.794678 
z"/>
<path fill="#FCDD09" opacity="1.000000" stroke="none" 
	d="
M331.000000,122.531364 
	C330.169830,123.045677 329.339661,123.131386 328.509491,123.131348 
	C219.650421,123.126518 110.791351,123.115410 1.466142,123.052299 
	C1.000000,115.312424 1.000000,107.624847 1.000000,99.468643 
	C1.830165,98.954330 2.660332,98.868614 3.490496,98.868652 
	C112.349548,98.873482 221.208603,98.884598 330.533813,98.947701 
	C331.000000,106.687576 331.000000,114.375153 331.000000,122.531364 
z"/>
<path fill="#FCDD09" opacity="1.000000" stroke="none" 
	d="
M329.999237,172.205322 
	C329.169342,172.157654 328.339447,172.068207 327.509552,172.068237 
	C219.317047,172.072479 111.124550,172.083282 2.221553,172.072144 
	C1.340703,172.033676 1.170352,172.016830 1.000000,172.000000 
	C1.000000,164.312424 1.000000,156.624832 1.000000,148.468628 
	C2.492173,147.918274 3.984340,147.765167 5.476521,147.765015 
	C112.844788,147.754608 220.213058,147.756195 327.581329,147.759918 
	C328.413147,147.759949 329.244965,147.802216 330.538391,147.912384 
	C331.000000,155.687576 331.000000,163.375168 330.744446,171.556625 
	C330.325684,172.102112 330.162476,172.153717 329.999237,172.205322 
z"/>
<path fill="#FCDD09" opacity="1.000000" stroke="none" 
	d="
M1.000000,197.468689 
	C2.483707,196.868454 3.967396,196.622009 5.451126,196.621765 
	C112.668732,196.604279 219.886337,196.606018 327.103943,196.611923 
	C328.101410,196.611969 329.098846,196.688629 330.548157,196.864761 
	C331.000000,204.990738 331.000000,212.981461 331.000000,220.955338 
	C220.999985,220.955338 110.999985,220.955338 1.000000,220.955338 
	C1.000000,213.252914 1.000000,205.595139 1.000000,197.468689 
z"/>
<path fill="#DE2718" opacity="1.000000" stroke="none" 
	d="
M1.842324,49.651993 
	C1.837490,49.846279 1.674271,49.897877 1.255526,49.974739 
	C1.000000,50.000000 1.000000,49.500000 1.000000,49.250000 
	C1.232563,49.163612 1.460543,49.333378 1.842324,49.651993 
z"/>
<path fill="#DE2718" opacity="1.000000" stroke="none" 
	d="
M331.000000,49.750000 
	C330.829651,49.983162 330.659302,49.966324 330.244080,49.872082 
	C330.203186,49.595730 330.421600,49.414188 330.827271,49.125031 
	C331.000000,49.000000 331.000000,49.500000 331.000000,49.750000 
z"/>
<path fill="#DE2718" opacity="1.000000" stroke="none" 
	d="
M1.000000,172.250000 
	C1.170352,172.016830 1.340703,172.033676 1.755883,172.127914 
	C1.796768,172.404297 1.578342,172.585831 1.172716,172.874969 
	C1.000000,173.000000 1.000000,172.500000 1.000000,172.250000 
z"/>
<path fill="#DE2718" opacity="1.000000" stroke="none" 
	d="
M330.157654,172.348022 
	C330.162476,172.153717 330.325684,172.102112 330.744446,172.025253 
	C331.000000,172.000000 331.000000,172.500000 331.000000,172.750000 
	C330.767426,172.836395 330.539429,172.666626 330.157654,172.348022 
z"/>
</svg>