<svg version="1.1" id="Layer_1" xmlns="http://www.w3.org/2000/svg" xmlns:xlink="http://www.w3.org/1999/xlink" x="0px" y="0px"
	 width="100%" viewBox="0 0 330 220" enable-background="new 0 0 330 220" xml:space="preserve">
<path fill="#FABD00" opacity="1.000000" stroke="none" 
	d="
M331.000000,56.000000 
	C331.000000,92.354225 331.000000,128.708450 330.531342,165.531693 
	C220.375122,166.000473 110.687561,166.000229 1.000000,166.000000 
	C1.000000,129.645767 1.000000,93.291542 1.468657,56.468288 
	C111.624878,55.999508 221.312439,55.999752 331.000000,56.000000 
M137.591583,117.096573 
	C138.137665,117.478020 138.683746,117.859459 139.214706,118.903152 
	C139.198776,119.564819 139.182846,120.226486 138.478119,121.147392 
	C133.596695,124.442558 136.705048,127.052139 139.168686,130.675171 
	C139.516846,135.677429 139.865021,140.679703 139.432175,145.904541 
	C138.408524,146.749481 136.753510,147.445145 136.510086,148.474579 
	C136.150269,149.996323 134.385239,152.616516 138.756500,153.009277 
	C139.497070,152.944092 140.237640,152.878891 141.639984,152.927841 
	C142.632675,152.551651 143.625351,152.175461 145.354172,151.970032 
	C146.201843,151.678894 147.049500,151.387741 148.159576,150.429123 
	C147.153671,148.562897 146.147781,146.696686 145.728973,144.431992 
	C146.329620,141.057739 146.930252,137.683472 148.224258,134.804581 
	C152.225479,133.668167 151.316727,131.424973 148.965561,129.736038 
	C146.718170,128.121628 145.645920,126.650429 147.804535,124.044922 
	C152.705002,120.191887 152.488632,117.854668 146.843491,114.008255 
	C146.843491,107.988655 146.843491,101.969048 146.843491,94.882378 
	C144.786133,94.677597 142.102585,94.410484 139.228851,94.124443 
	C139.228851,98.796898 139.228851,102.510338 139.212463,107.036072 
	C139.185303,109.206299 139.158142,111.376518 138.437485,113.808617 
	C137.956650,113.911232 137.475830,114.013847 136.232315,114.006462 
	C135.212326,114.007553 134.192352,114.008644 133.035172,113.083778 
	C133.035172,108.561058 133.035172,104.038330 133.035172,98.924957 
	C129.579971,98.924957 126.842255,98.924957 124.301834,98.275131 
	C124.531654,97.178741 124.761482,96.082352 124.999695,94.999695 
	C124.999695,94.999695 124.987587,94.988312 125.553040,94.821877 
	C126.045860,94.216995 126.538681,93.612106 127.638939,92.754486 
	C128.378632,91.771263 129.118301,90.788033 130.131149,89.342377 
	C130.655762,88.859894 131.180359,88.377419 132.089462,87.825592 
	C132.186996,87.744980 132.365601,87.665421 132.366669,87.583557 
	C132.369659,87.351913 132.299927,87.119331 132.281174,86.486694 
	C132.281174,86.486694 132.250961,86.086784 132.814209,85.859337 
	C132.782501,83.708328 133.566498,80.907532 132.505920,79.576126 
	C131.270584,78.025352 128.421432,77.760117 126.272606,76.937019 
	C126.248390,77.569000 126.224182,78.200974 125.415154,78.926353 
	C122.129684,81.718567 118.616760,82.118912 114.844872,79.952797 
	C114.568375,79.794006 114.218826,79.762421 113.275375,79.348000 
	C111.202507,79.479950 109.129631,79.611893 106.267662,79.979675 
	C101.215744,81.260399 96.163826,82.541122 90.993690,83.079201 
	C90.741280,79.697083 92.924362,78.948547 96.445915,78.836899 
	C103.980713,74.558456 112.311813,75.755516 120.483223,75.402557 
	C115.120705,71.555206 109.132912,73.121758 103.458046,73.540062 
	C100.568825,73.753036 97.804604,75.661652 94.221519,76.973549 
	C90.797867,77.003479 87.897614,78.757286 87.921524,81.955994 
	C87.941635,84.645676 90.072060,87.319572 91.608002,90.636742 
	C93.428436,92.410011 95.248878,94.183273 97.099693,96.571121 
	C97.352448,97.342087 97.605202,98.113052 96.970413,98.926582 
	C94.529060,98.926582 92.087700,98.926582 90.182556,98.926582 
	C89.545738,99.667671 89.347878,99.789757 89.342545,99.919754 
	C89.145935,104.707405 88.967178,109.495796 87.943405,114.195244 
	C85.644989,114.057381 83.346565,113.919518 81.025787,112.947479 
	C81.046425,111.005234 81.067070,109.062981 81.795685,106.914314 
	C83.346565,104.404663 85.228485,101.928535 83.002930,98.429047 
	C84.902702,95.210579 82.213684,94.056244 80.218056,93.735939 
	C78.518036,93.463074 76.568886,94.742401 74.729950,95.335045 
	C75.158539,96.554909 75.587135,97.774780 75.603188,99.590210 
	C75.183617,100.532570 74.385429,101.484749 74.409561,102.415611 
	C74.518089,106.603661 74.860008,110.785660 74.619049,115.129837 
	C74.381287,115.369812 74.143517,115.609779 73.271568,115.965668 
	C69.738838,119.054047 70.322868,121.967712 75.262383,124.824974 
	C74.529800,126.406509 74.154152,128.354950 72.987312,129.490112 
	C70.828125,131.590652 70.489403,133.214310 73.685188,135.488312 
	C74.479935,138.928360 75.274681,142.368423 75.425331,146.124283 
	C75.444611,147.976486 69.775146,148.204971 74.446472,151.794525 
	C75.423309,151.795975 76.400154,151.797424 77.918770,152.307144 
	C80.439072,153.020111 82.959366,153.733078 85.633865,154.489670 
	C86.055992,148.153000 86.055992,148.153000 81.134781,144.976395 
	C81.703445,139.828735 82.272118,134.681091 83.295921,129.036621 
	C86.997513,125.258896 86.900291,123.524239 82.811569,120.319435 
	C82.820503,119.939308 82.829437,119.559189 83.661346,118.945999 
	C84.798553,118.906700 85.935760,118.867393 87.796638,119.077080 
	C88.598488,121.382965 89.400330,123.688850 90.111031,126.921120 
	C89.925621,132.279358 89.507668,137.646484 89.711784,142.989838 
	C89.765488,144.395844 91.743622,145.728348 92.942513,147.678238 
	C93.263626,148.105698 93.584740,148.533157 94.240753,149.562988 
	C95.236046,150.385788 96.231339,151.208572 97.744095,152.065277 
	C98.090858,152.028046 98.437630,151.990814 99.380371,152.175751 
	C99.951485,152.433975 100.522598,152.692200 101.576523,152.996689 
	C101.576523,152.996689 102.044891,152.870697 102.641754,152.960480 
	C103.042633,152.951218 103.443520,152.941956 104.482780,152.857330 
	C105.020195,152.504318 105.557610,152.151321 106.735458,152.106125 
	C108.464851,152.669037 110.194244,153.231949 112.588814,153.968399 
	C113.382919,153.700729 114.177025,153.433060 115.106422,153.085495 
	C115.106422,153.085495 115.235336,152.995636 115.723015,153.025696 
	C115.723015,153.025696 116.205925,152.951294 117.010910,152.965637 
	C119.720795,152.329391 122.430687,151.693161 125.874352,151.093063 
	C127.965141,148.775116 130.055923,146.457153 132.756409,143.533142 
	C132.512192,137.307648 132.267990,131.082138 132.009827,124.071411 
	C132.659286,121.747917 133.308762,119.424423 134.715347,116.987930 
	C135.475708,116.923515 136.236053,116.859108 137.591583,117.096573 
z"/>
<path fill="#AD1519" opacity="1.000000" stroke="none" 
	d="
M331.000000,55.531342 
	C221.312439,55.999752 111.624878,55.999508 1.468657,55.999630 
	C1.000000,37.684910 1.000000,19.369818 1.000005,1.056467 
	C111.000015,1.058206 221.000015,1.058206 331.000000,1.058206 
	C331.000000,19.098503 331.000000,37.080593 331.000000,55.531342 
z"/>
<path fill="#AD1519" opacity="1.000000" stroke="none" 
	d="
M1.000000,166.468658 
	C110.687561,166.000229 220.375122,166.000473 330.531342,166.000351 
	C331.000000,184.315094 331.000000,202.630173 331.000000,220.943542 
	C220.999985,220.941803 110.999985,220.941803 1.000000,220.941803 
	C1.000000,202.901505 1.000000,184.919403 1.000000,166.468658 
z"/>
<path fill="#B00225" opacity="1.000000" stroke="none" 
	d="
M90.202179,125.994736 
	C89.400330,123.688850 88.598488,121.382965 87.273361,118.693130 
	C86.478271,117.555222 86.206467,116.801262 86.193481,115.836227 
	C87.302917,115.413094 88.153519,115.201035 89.277405,114.677010 
	C89.687447,113.383316 89.917053,112.404396 89.946777,111.419441 
	C90.282402,100.298691 90.274178,100.298439 101.402443,99.861069 
	C102.059380,99.869400 102.435104,99.854034 103.120773,99.787338 
	C104.248810,99.111938 105.066910,98.487862 106.196861,98.051270 
	C108.060493,98.853905 109.612282,99.469063 111.120117,100.543053 
	C110.798401,106.233261 110.520630,111.464645 109.887108,116.784317 
	C108.098427,117.222244 106.665504,117.571892 105.156189,117.515656 
	C105.298492,115.161644 105.532875,113.215111 105.732254,111.264999 
	C106.040131,108.253853 102.784271,102.753197 100.512222,103.070633 
	C96.751106,103.596107 95.098152,106.480553 95.094215,110.051773 
	C95.090820,113.130951 95.322197,116.273277 96.029861,119.249779 
	C96.227188,120.079788 98.483078,120.420380 99.916641,121.241966 
	C100.427795,121.327507 100.816925,121.156570 101.403900,121.020920 
	C101.601746,121.056213 101.990685,121.157639 102.140503,121.390419 
	C102.840332,122.115395 103.390343,122.607590 103.952133,123.410721 
	C103.973785,124.136414 103.983665,124.551178 103.809006,125.105171 
	C103.388832,125.447067 103.195152,125.684021 103.031250,126.338745 
	C103.028595,127.490013 103.038124,128.257812 103.042442,129.492554 
	C102.711418,136.922577 102.385597,143.885681 102.044876,150.389847 
	C102.021240,146.486221 102.138985,143.035400 101.972389,139.598373 
	C101.754051,135.093796 101.311325,130.600113 100.520248,126.104645 
	C98.312279,126.225014 96.549171,126.342484 93.905853,126.518600 
	C93.905853,133.964890 93.905853,141.462753 93.905853,148.960617 
	C93.584740,148.533157 93.263626,148.105698 92.941910,146.914703 
	C92.958969,140.591064 93.137932,135.023087 92.866920,129.477112 
	C92.808212,128.275772 91.132896,127.153450 90.202179,125.994736 
z"/>
<path fill="#AFADAE" opacity="1.000000" stroke="none" 
	d="
M110.242859,116.696030 
	C110.520630,111.464645 110.798401,106.233261 111.539642,100.521866 
	C113.934998,99.965820 115.866875,99.889786 118.093292,99.861252 
	C118.585388,99.885895 118.782959,99.863029 119.444511,99.903923 
	C123.799850,99.967690 127.691216,99.967690 131.494919,99.967690 
	C132.008713,105.793915 132.460220,110.913780 133.018860,116.270294 
	C133.403397,116.704941 133.680801,116.902931 133.958221,117.100922 
	C133.308762,119.424423 132.659286,121.747917 131.563080,124.576141 
	C126.780472,125.040894 122.444588,125.000923 118.071976,124.579300 
	C117.509529,119.545059 115.156158,116.790970 110.242859,116.696030 
M121.115410,113.596863 
	C120.303566,115.460075 119.491730,117.323288 118.688042,119.167809 
	C121.033440,120.044800 123.333817,120.904953 126.598991,122.125854 
	C126.414825,119.038879 126.235435,116.031822 126.011383,112.256783 
	C125.523445,110.366852 125.035507,108.476921 124.320770,105.708542 
	C120.916801,109.862053 118.105057,107.283150 114.703445,104.900658 
	C115.585358,108.153290 116.219200,110.491013 116.981911,113.304024 
	C117.719261,113.258842 119.342598,113.159370 121.115410,113.596863 
M123.340034,102.906120 
	C123.899673,103.589211 124.459305,104.272301 125.018944,104.955391 
	C125.283386,104.691666 125.547821,104.427948 125.812263,104.164223 
	C125.128044,103.610649 124.443825,103.057083 123.340034,102.906120 
z"/>
<path fill="#A30C21" opacity="1.000000" stroke="none" 
	d="
M132.250961,86.086784 
	C132.250961,86.086784 132.281174,86.486694 132.113022,86.928268 
	C131.864883,87.544868 131.784912,87.719902 131.704956,87.894928 
	C131.180359,88.377419 130.655762,88.859894 129.730804,89.545761 
	C128.604721,89.666451 127.251701,89.468430 127.242668,89.517509 
	C126.591484,93.059380 123.664467,91.873276 122.221199,91.250740 
	C119.275246,89.980011 116.694878,87.861702 113.667397,86.057831 
	C112.862289,86.296005 112.353699,86.568878 111.555634,86.892754 
	C110.519485,87.173820 109.772812,87.403877 109.021599,87.259720 
	C108.678528,84.593925 108.339996,82.302330 108.416458,79.920158 
	C110.522057,79.776947 112.212646,79.724327 113.903244,79.671692 
	C114.218826,79.762421 114.568375,79.794006 114.844872,79.952797 
	C118.616760,82.118912 122.129684,81.718567 126.151825,78.949722 
	C131.142181,79.485252 130.916840,83.373795 132.250961,86.086784 
z"/>
<path fill="#957002" opacity="1.000000" stroke="none" 
	d="
M94.073303,149.261810 
	C93.905853,141.462753 93.905853,133.964890 93.905853,126.518600 
	C96.549171,126.342484 98.312279,126.225014 100.542099,126.563461 
	C101.037109,135.663055 101.065414,144.306732 101.093719,152.950409 
	C100.522598,152.692200 99.951485,152.433975 99.138100,151.787262 
	C98.729172,150.887909 98.562523,150.377060 98.068924,149.858810 
	C97.534714,150.211365 97.327446,150.571304 97.113846,151.209473 
	C97.147217,151.668930 97.186920,151.850143 97.226631,152.031372 
	C96.231339,151.208572 95.236046,150.385788 94.073303,149.261810 
z"/>
<path fill="#804C08" opacity="1.000000" stroke="none" 
	d="
M113.963921,86.092529 
	C116.694878,87.861702 119.275246,89.980011 122.221199,91.250740 
	C123.664467,91.873276 126.591484,93.059380 127.242668,89.517509 
	C127.251701,89.468430 128.604721,89.666451 129.594223,89.776970 
	C129.118301,90.788033 128.378632,91.771263 127.034622,92.950287 
	C125.949402,93.760170 125.468498,94.374245 124.987595,94.988312 
	C124.987587,94.988312 124.999695,94.999695 124.788162,94.826019 
	C120.347237,94.463409 115.840965,95.133606 111.954407,93.880966 
	C106.348892,92.074303 101.931709,94.720436 97.069313,95.956543 
	C95.248878,94.183273 93.428436,92.410011 91.828125,90.278900 
	C92.991386,89.614700 93.934525,89.308342 95.135521,89.177902 
	C96.945221,89.242973 98.497063,89.132126 100.334007,88.965080 
	C101.102692,88.608650 101.586273,88.308418 102.435684,87.989433 
	C103.534073,87.977448 104.266617,87.984207 105.330658,88.021561 
	C106.105301,88.035751 106.548439,88.019348 107.224464,87.979324 
	C107.457344,87.955711 107.911560,87.842323 108.193329,87.806915 
	C108.658768,87.725655 108.842453,87.679802 109.026138,87.633942 
	C109.772812,87.403877 110.519485,87.173820 111.750641,87.076187 
	C112.811386,86.836586 113.387650,86.464554 113.963921,86.092529 
M119.495209,92.526207 
	C119.495209,92.526207 119.479271,92.486603 119.495209,92.526207 
z"/>
<path fill="#A6A08F" opacity="1.000000" stroke="none" 
	d="
M140.213196,145.681961 
	C139.865021,140.679703 139.516846,135.677429 139.545410,130.265228 
	C142.458389,131.339920 144.994644,132.824570 147.530899,134.309219 
	C146.930252,137.683472 146.329620,141.057739 145.061707,144.631439 
	C143.000687,145.114563 141.606934,145.398270 140.213196,145.681961 
z"/>
<path fill="#94760B" opacity="1.000000" stroke="none" 
	d="
M139.228851,106.223778 
	C139.228851,102.510338 139.228851,98.796898 139.228851,94.124443 
	C142.102585,94.410484 144.786133,94.677597 146.843491,94.882378 
	C146.843491,101.969048 146.843491,107.988655 146.600784,114.429314 
	C146.168564,114.780098 145.979050,114.709831 145.871490,114.219620 
	C146.386597,105.356598 146.370148,105.338074 139.228851,106.223778 
z"/>
<path fill="#A41620" opacity="1.000000" stroke="none" 
	d="
M109.021599,87.259727 
	C108.842453,87.679802 108.658768,87.725655 108.080017,87.737717 
	C107.397224,87.649719 107.166107,87.749390 106.991585,88.002937 
	C106.548439,88.019348 106.105301,88.035751 105.273621,87.772308 
	C103.031204,85.954926 101.364845,81.636024 99.022598,87.326965 
	C99.006142,87.555611 98.960609,88.011803 98.782684,88.045044 
	C98.726639,88.379784 98.848534,88.681290 99.240234,88.987328 
	C99.689651,89.001663 99.869278,89.011475 100.048904,89.021278 
	C98.497063,89.132126 96.945221,89.242973 94.769890,89.122231 
	C91.007164,88.474846 90.620071,86.411438 91.111908,83.821854 
	C96.163826,82.541122 101.215744,81.260399 106.899963,79.922882 
	C107.532265,79.866096 108.001472,80.010742 108.001465,80.010742 
	C108.339996,82.302330 108.678528,84.593925 109.021599,87.259727 
z"/>
<path fill="#8B6A03" opacity="1.000000" stroke="none" 
	d="
M97.084503,96.263832 
	C101.931709,94.720436 106.348892,92.074303 111.954407,93.880966 
	C115.840965,95.133606 120.347237,94.463409 124.783966,94.819153 
	C124.761482,96.082352 124.531654,97.178741 123.820877,98.638321 
	C121.886795,99.281059 120.433662,99.560608 118.980537,99.840149 
	C118.782959,99.863029 118.585388,99.885895 118.221451,99.579147 
	C118.906876,98.628304 119.758659,98.007072 121.309494,96.875999 
	C116.060265,96.622200 111.607292,96.406898 106.792923,96.169922 
	C105.224632,97.378395 104.017731,98.608528 102.810837,99.838669 
	C102.435104,99.854034 102.059380,99.869400 101.119324,99.658470 
	C99.655991,99.249458 98.756981,99.066742 97.857956,98.884018 
	C97.605202,98.113052 97.352448,97.342087 97.084503,96.263832 
z"/>
<path fill="#AA1526" opacity="1.000000" stroke="none" 
	d="
M147.877579,134.556900 
	C144.994644,132.824570 142.458389,131.339920 139.567627,129.784241 
	C136.705048,127.052139 133.596695,124.442558 139.019638,121.324440 
	C139.481827,125.840424 142.268188,127.009819 146.278137,127.687569 
	C146.278137,126.152397 146.278137,125.066360 146.485291,123.994484 
	C146.692429,124.008636 147.103760,124.065613 147.103760,124.065613 
	C145.645920,126.650429 146.718170,128.121628 148.965561,129.736038 
	C151.316727,131.424973 152.225479,133.668167 147.877579,134.556900 
z"/>
<path fill="#27486D" opacity="1.000000" stroke="none" 
	d="
M73.963158,151.247040 
	C69.775146,148.204971 75.444611,147.976486 76.146729,146.018036 
	C78.200119,145.829865 79.532120,145.747925 80.864113,145.665985 
	C86.055992,148.153000 86.055992,148.153000 85.633865,154.489670 
	C82.959366,153.733078 80.439072,153.020111 77.352303,151.839508 
	C75.844940,151.330261 74.904053,151.288651 73.963158,151.247040 
z"/>
<path fill="#AA1526" opacity="1.000000" stroke="none" 
	d="
M73.066719,135.035187 
	C70.489403,133.214310 70.828125,131.590652 72.987312,129.490112 
	C74.154152,128.354950 74.529800,126.406509 75.274780,124.415329 
	C75.287170,124.005692 75.682602,123.969482 75.658813,124.368408 
	C75.416092,126.886978 75.872536,128.930328 78.311668,127.037125 
	C80.246124,125.535637 81.360687,122.977844 82.839294,120.889069 
	C86.900291,123.524239 86.997513,125.258896 82.757133,129.390747 
	C81.475311,130.178696 80.732277,130.612534 79.669373,131.077423 
	C78.255928,131.699844 77.162354,132.291214 75.882729,132.931366 
	C75.696678,132.980164 75.373833,133.189316 75.021942,133.207123 
	C74.106674,133.832779 73.543297,134.440628 73.002014,135.047531 
	C73.024117,135.046570 73.066719,135.035187 73.066719,135.035187 
z"/>
<path fill="#27486D" opacity="1.000000" stroke="none" 
	d="
M139.822693,145.793243 
	C141.606934,145.398270 143.000687,145.114563 144.768158,144.830658 
	C146.147781,146.696686 147.153671,148.562897 147.687347,150.780182 
	C146.349426,151.353912 145.483734,151.576584 144.618042,151.799255 
	C143.625351,152.175461 142.632675,152.551651 141.317688,152.676056 
	C140.995377,152.424271 141.014847,152.034058 140.845673,151.770630 
	C139.778992,151.683975 138.881485,151.860718 137.994904,152.291687 
	C138.007812,152.715561 138.009796,152.885208 138.011795,153.054840 
	C134.385239,152.616516 136.150269,149.996323 136.510086,148.474579 
	C136.753510,147.445145 138.408524,146.749481 139.822693,145.793243 
z"/>
<path fill="#9C9275" opacity="1.000000" stroke="none" 
	d="
M79.989243,131.046387 
	C80.732277,130.612534 81.475311,130.178696 82.529564,129.639145 
	C82.272118,134.681091 81.703445,139.828735 80.999451,145.321182 
	C79.532120,145.747925 78.200119,145.829865 76.468781,145.860138 
	C75.274681,142.368423 74.479935,138.928360 73.375954,135.261749 
	C73.066719,135.035187 73.024117,135.046570 73.342232,135.058655 
	C74.231506,134.443588 74.802673,133.816452 75.373840,133.189316 
	C75.373833,133.189316 75.696678,132.980164 75.892212,133.391449 
	C76.100098,135.449387 75.893593,137.138412 76.201553,138.727768 
	C76.407593,139.791122 77.344612,140.712814 77.954529,141.697906 
	C78.655075,140.781128 79.859497,139.915482 79.958717,138.937683 
	C80.223015,136.333038 80.011551,133.680115 79.989243,131.046387 
z"/>
<path fill="#F3B601" opacity="1.000000" stroke="none" 
	d="
M94.983879,76.803780 
	C97.804604,75.661652 100.568825,73.753036 103.458046,73.540062 
	C109.132912,73.121758 115.120705,71.555206 120.483223,75.402557 
	C112.311813,75.755516 103.980713,74.558456 96.205765,78.603195 
	C95.638367,77.847588 95.311127,77.325684 94.983879,76.803780 
z"/>
<path fill="#94760B" opacity="1.000000" stroke="none" 
	d="
M82.597748,98.995354 
	C85.228485,101.928535 83.346565,104.404663 81.081787,106.814445 
	C79.061539,106.437263 77.755180,106.159943 75.859642,105.757553 
	C75.859642,109.184540 75.859642,111.909225 75.745987,114.712990 
	C75.475616,114.894241 75.304100,114.953499 75.117767,114.969841 
	C74.860008,110.785660 74.518089,106.603661 74.409561,102.415611 
	C74.385429,101.484749 75.183617,100.532570 76.167084,99.322678 
	C78.686569,99.035217 80.642159,99.015282 82.597748,98.995354 
z"/>
<path fill="#B00225" opacity="1.000000" stroke="none" 
	d="
M132.146713,144.139206 
	C130.055923,146.457153 127.965141,148.775116 125.136429,151.057800 
	C123.903687,151.004929 123.408882,150.987335 123.110291,150.759857 
	C123.902252,149.429596 124.498001,148.309250 125.392380,147.187561 
	C126.088318,147.161331 126.485611,147.136459 127.018463,147.199036 
	C127.154007,147.286484 127.618866,147.295593 127.618866,147.295593 
	C127.618866,147.295593 128.009857,147.030853 128.317657,146.861328 
	C129.513550,140.298523 130.401672,133.905228 131.362595,126.987732 
	C125.944740,126.987732 121.990761,126.987732 118.029648,126.727295 
	C118.018166,126.293221 118.013832,126.119591 118.474091,125.963623 
	C121.901367,125.989418 124.872955,126.144791 127.824333,125.966248 
	C131.089401,125.768738 132.175110,127.173378 132.077179,130.318420 
	C131.933884,134.920166 132.107925,139.531784 132.146713,144.139206 
z"/>
<path fill="#AB0D22" opacity="1.000000" stroke="none" 
	d="
M147.454147,124.055267 
	C147.103760,124.065613 146.692429,124.008636 146.365204,123.618271 
	C146.984955,118.121254 143.210388,118.312401 140.007812,117.476135 
	C140.004456,116.077339 140.005157,115.059647 140.378143,114.029808 
	C142.430130,114.224960 144.109833,114.432259 145.789536,114.639557 
	C145.979050,114.709831 146.168564,114.780098 146.658600,114.881348 
	C152.488632,117.854668 152.705002,120.191887 147.454147,124.055267 
z"/>
<path fill="#957002" opacity="1.000000" stroke="none" 
	d="
M90.156601,126.457932 
	C91.132896,127.153450 92.808212,128.275772 92.866920,129.477112 
	C93.137932,135.023087 92.958969,140.591064 92.889664,146.622894 
	C91.743622,145.728348 89.765488,144.395844 89.711784,142.989838 
	C89.507668,137.646484 89.925621,132.279358 90.156601,126.457932 
z"/>
<path fill="#A6A3A0" opacity="1.000000" stroke="none" 
	d="
M145.871490,114.219620 
	C144.109833,114.432259 142.430130,114.224960 140.173691,113.880707 
	C139.441635,113.678070 139.286301,113.612404 139.130981,113.546745 
	C139.158142,111.376518 139.185303,109.206299 139.220657,106.629929 
	C146.370148,105.338074 146.386597,105.356598 145.871490,114.219620 
z"/>
<path fill="#A6A3A0" opacity="1.000000" stroke="none" 
	d="
M140.011841,117.857239 
	C143.210388,118.312401 146.984955,118.121254 146.158066,123.604111 
	C146.278137,125.066360 146.278137,126.152397 146.278137,127.687569 
	C142.268188,127.009819 139.481827,125.840424 139.364044,121.194824 
	C139.182846,120.226486 139.198776,119.564819 139.425385,118.492416 
	C139.636047,118.081673 140.011841,117.857239 140.011841,117.857239 
z"/>
<path fill="#94760B" opacity="1.000000" stroke="none" 
	d="
M94.602699,76.888664 
	C95.311127,77.325684 95.638367,77.847588 95.804428,78.574432 
	C92.924362,78.948547 90.741280,79.697083 91.052795,83.450531 
	C90.620071,86.411438 91.007164,88.474846 94.512032,88.946320 
	C93.934525,89.308342 92.991386,89.614700 91.658249,89.960770 
	C90.072060,87.319572 87.941635,84.645676 87.921524,81.955994 
	C87.897614,78.757286 90.797867,77.003479 94.602699,76.888664 
z"/>
<path fill="#804C08" opacity="1.000000" stroke="none" 
	d="
M82.800339,98.712204 
	C80.642159,99.015282 78.686569,99.035217 76.373352,99.024895 
	C75.587135,97.774780 75.158539,96.554909 74.729950,95.335045 
	C76.568886,94.742401 78.518036,93.463074 80.218056,93.735939 
	C82.213684,94.056244 84.902702,95.210579 82.800339,98.712204 
z"/>
<path fill="#A6A3A0" opacity="1.000000" stroke="none" 
	d="
M82.825432,120.604248 
	C81.360687,122.977844 80.246124,125.535637 78.311668,127.037125 
	C75.872536,128.930328 75.416092,126.886978 75.761002,123.974953 
	C76.053085,121.851242 76.219200,120.519920 76.790314,119.170677 
	C79.076332,119.161530 80.957352,119.170296 82.838371,119.179062 
	C82.829437,119.559189 82.820503,119.939308 82.825432,120.604248 
z"/>
<path fill="#9D7C00" opacity="1.000000" stroke="none" 
	d="
M106.095024,151.798325 
	C105.557610,152.151321 105.020195,152.504318 104.202744,152.431412 
	C103.982300,144.356888 104.041893,136.708282 104.379883,129.316956 
	C105.135651,131.600800 105.922485,133.611206 106.029343,135.657120 
	C106.294083,140.726028 106.247925,145.811188 106.269554,151.117157 
	C106.212433,151.344482 106.095024,151.798325 106.095024,151.798325 
z"/>
<path fill="#AFADAE" opacity="1.000000" stroke="none" 
	d="
M75.859642,114.633911 
	C75.859642,111.909225 75.859642,109.184540 75.859642,105.757553 
	C77.755180,106.159943 79.061539,106.437263 80.727806,106.917656 
	C81.067070,109.062981 81.046425,111.005234 80.767563,113.526886 
	C80.339561,114.690208 80.169769,115.274124 79.682068,115.797379 
	C78.195984,115.369110 77.027809,115.001511 75.859642,114.633911 
z"/>
<path fill="#A44120" opacity="1.000000" stroke="none" 
	d="
M75.745987,114.712990 
	C77.027809,115.001511 78.195984,115.369110 79.837357,116.084030 
	C82.427277,119.847427 84.042442,115.918823 85.934654,116.047310 
	C86.206467,116.801262 86.478271,117.555222 86.911530,118.568634 
	C85.935760,118.867393 84.798553,118.906700 83.249863,119.062531 
	C80.957352,119.170296 79.076332,119.161530 76.462860,119.003883 
	C75.122185,117.853256 74.513969,116.851501 73.905746,115.849747 
	C74.143517,115.609779 74.381287,115.369812 74.868408,115.049835 
	C75.304100,114.953499 75.475616,114.894241 75.745987,114.712990 
z"/>
<path fill="#9D7C00" opacity="1.000000" stroke="none" 
	d="
M132.532593,85.973061 
	C130.916840,83.373795 131.142181,79.485252 126.544235,78.903015 
	C126.224182,78.200974 126.248390,77.569000 126.272606,76.937019 
	C128.421432,77.760117 131.270584,78.025352 132.505920,79.576126 
	C133.566498,80.907532 132.782501,83.708328 132.532593,85.973061 
z"/>
<path fill="#AB0D22" opacity="1.000000" stroke="none" 
	d="
M73.588654,115.907707 
	C74.513969,116.851501 75.122185,117.853256 76.057861,119.021805 
	C76.219200,120.519920 76.053085,121.851242 75.784790,123.576019 
	C75.682602,123.969482 75.287170,124.005692 75.091164,124.035614 
	C70.322868,121.967712 69.738838,119.054047 73.588654,115.907707 
z"/>
<path fill="#633B31" opacity="1.000000" stroke="none" 
	d="
M132.451569,143.836182 
	C132.107925,139.531784 131.933884,134.920166 132.077179,130.318420 
	C132.175110,127.173378 131.089401,125.768738 127.824333,125.966248 
	C124.872955,126.144791 121.901367,125.989418 118.488937,125.716499 
	C118.039177,125.451706 118.108711,124.960953 118.108711,124.960953 
	C122.444588,125.000923 126.780472,125.040894 131.570068,124.968750 
	C132.267990,131.082138 132.512192,137.307648 132.451569,143.836182 
z"/>
<path fill="#9C9275" opacity="1.000000" stroke="none" 
	d="
M116.205925,152.951294 
	C116.205925,152.951294 115.723015,153.025696 115.282883,152.657471 
	C112.146904,151.820847 109.451050,151.352463 106.829834,150.566620 
	C107.923729,149.151001 108.942993,148.052795 110.342682,146.964050 
	C111.230034,146.944229 111.736969,146.914978 112.528702,147.000214 
	C113.191727,147.100037 113.569954,147.085373 113.910713,147.070099 
	C113.873245,147.069489 113.842255,147.137726 113.814926,147.501907 
	C114.593697,149.561157 115.399811,151.256226 116.205925,152.951294 
z"/>
<path fill="#675724" opacity="1.000000" stroke="none" 
	d="
M119.444511,99.903915 
	C120.433662,99.560608 121.886795,99.281059 123.722229,98.963234 
	C126.842255,98.924957 129.579971,98.924957 133.035172,98.924957 
	C133.035172,104.038330 133.035172,108.561058 133.054520,113.882843 
	C133.019821,115.132484 132.965775,115.583061 132.911728,116.033638 
	C132.460220,110.913780 132.008713,105.793915 131.494919,99.967690 
	C127.691216,99.967690 123.799850,99.967690 119.444511,99.903915 
z"/>
<path fill="#6B3D06" opacity="1.000000" stroke="none" 
	d="
M97.414185,98.905304 
	C98.756981,99.066742 99.655991,99.249458 100.838120,99.634781 
	C90.274178,100.298439 90.282402,100.298691 89.946777,111.419441 
	C89.917053,112.404396 89.687447,113.383316 89.225006,114.500168 
	C88.899330,114.635292 88.785980,114.284081 88.785980,114.284081 
	C88.967178,109.495796 89.145935,104.707405 89.342545,99.919754 
	C89.347878,99.789757 89.545738,99.667671 90.182556,98.926582 
	C92.087700,98.926582 94.529060,98.926582 97.414185,98.905304 
z"/>
<path fill="#8A350F" opacity="1.000000" stroke="none" 
	d="
M101.335114,152.973557 
	C101.065414,144.306732 101.037109,135.663055 100.986954,126.560555 
	C101.311325,130.600113 101.754051,135.093796 101.972389,139.598373 
	C102.138985,143.035400 102.021240,146.486221 102.027550,150.727905 
	C102.031708,151.973495 102.038300,152.422104 102.044891,152.870697 
	C102.044891,152.870697 101.576523,152.996689 101.335114,152.973557 
z"/>
<path fill="#AA1526" opacity="1.000000" stroke="none" 
	d="
M116.608414,152.958466 
	C115.399811,151.256226 114.593697,149.561157 114.174385,147.452240 
	C115.043900,147.061081 115.526619,147.083771 116.088432,147.445160 
	C118.416374,148.845810 120.665222,149.907776 122.914070,150.969742 
	C123.408882,150.987335 123.903687,151.004929 124.769531,151.039734 
	C122.430687,151.693161 119.720795,152.329391 116.608414,152.958466 
z"/>
<path fill="#86141B" opacity="1.000000" stroke="none" 
	d="
M102.343323,152.915588 
	C102.038300,152.422104 102.031708,151.973495 102.042450,151.186844 
	C102.385597,143.885681 102.711418,136.922577 103.305878,129.494690 
	C103.750175,129.039841 103.925835,129.049759 104.101494,129.059677 
	C104.041893,136.708282 103.982300,144.356888 103.883545,152.469086 
	C103.443520,152.941956 103.042633,152.951218 102.343323,152.915588 
z"/>
<path fill="#AB0D22" opacity="1.000000" stroke="none" 
	d="
M88.364693,114.239662 
	C88.785980,114.284081 88.899330,114.635292 88.951729,114.812134 
	C88.153519,115.201035 87.302917,115.413094 86.193481,115.836227 
	C84.042442,115.918823 82.427277,119.847427 80.155273,116.144699 
	C80.169769,115.274124 80.339561,114.690208 80.778748,113.943970 
	C83.346565,113.919518 85.644989,114.057381 88.364693,114.239662 
z"/>
<path fill="#27486D" opacity="1.000000" stroke="none" 
	d="
M106.755203,150.884064 
	C109.451050,151.352463 112.146904,151.820847 115.039047,152.642441 
	C115.235336,152.995636 115.106422,153.085495 114.714813,153.101883 
	C113.523354,153.343811 112.723488,153.569336 111.923630,153.794876 
	C110.194244,153.231949 108.464851,152.669037 106.415237,151.952225 
	C106.095024,151.798325 106.212433,151.344482 106.376534,151.133057 
	C106.540634,150.921646 106.755203,150.884064 106.755203,150.884064 
z"/>
<path fill="#AB0D22" opacity="1.000000" stroke="none" 
	d="
M133.018860,116.270294 
	C132.965775,115.583061 133.019821,115.132484 133.123108,114.345825 
	C134.192352,114.008644 135.212326,114.007553 136.615265,114.396240 
	C136.997604,115.455574 136.997009,116.125137 136.996414,116.794693 
	C136.236053,116.859108 135.475708,116.923515 134.336792,117.044434 
	C133.680801,116.902931 133.403397,116.704941 133.018860,116.270294 
z"/>
<path fill="#AA1526" opacity="1.000000" stroke="none" 
	d="
M137.294006,116.945633 
	C136.997009,116.125137 136.997604,115.455574 136.996597,114.451248 
	C137.475830,114.013847 137.956650,113.911232 138.784241,113.677681 
	C139.286301,113.612404 139.441635,113.678070 139.801392,113.892853 
	C140.005157,115.059647 140.004456,116.077339 140.007812,117.476135 
	C140.011841,117.857239 139.636047,118.081673 139.432938,118.161285 
	C138.683746,117.859459 138.137665,117.478020 137.294006,116.945633 
z"/>
<path fill="#F3B601" opacity="1.000000" stroke="none" 
	d="
M108.416466,79.920158 
	C108.001472,80.010742 107.532265,79.866096 107.294510,79.804962 
	C109.129631,79.611893 111.202507,79.479950 113.589310,79.509850 
	C112.212646,79.724327 110.522057,79.776947 108.416466,79.920158 
z"/>
<path fill="#8B6A03" opacity="1.000000" stroke="none" 
	d="
M125.270317,94.905098 
	C125.468498,94.374245 125.949402,93.760170 126.730911,93.076660 
	C126.538681,93.612106 126.045860,94.216995 125.270317,94.905098 
z"/>
<path fill="#AB0D22" opacity="1.000000" stroke="none" 
	d="
M98.395874,149.866211 
	C98.562523,150.377060 98.729172,150.887909 98.840111,151.676178 
	C98.437630,151.990814 98.090858,152.028046 97.485367,152.048325 
	C97.186920,151.850143 97.147217,151.668930 97.328484,151.037048 
	C97.831596,150.346329 98.113731,150.106262 98.395874,149.866211 
z"/>
<path fill="#9C9275" opacity="1.000000" stroke="none" 
	d="
M74.204819,151.520782 
	C74.904053,151.288651 75.844940,151.330261 77.081413,151.585388 
	C76.400154,151.797424 75.423309,151.795975 74.204819,151.520782 
z"/>
<path fill="#9C9275" opacity="1.000000" stroke="none" 
	d="
M144.986115,151.884644 
	C145.483734,151.576584 146.349426,151.353912 147.556152,151.113907 
	C147.049500,151.387741 146.201843,151.678894 144.986115,151.884644 
z"/>
<path fill="#103F8C" opacity="1.000000" stroke="none" 
	d="
M141.014847,152.034058 
	C141.014847,152.034058 140.995377,152.424271 140.986786,152.618988 
	C140.237640,152.878891 139.497070,152.944092 138.384155,153.032059 
	C138.009796,152.885208 138.007812,152.715561 138.373016,152.257477 
	C139.498413,151.990707 140.256622,152.012390 141.014847,152.034058 
z"/>
<path fill="#A6A08F" opacity="1.000000" stroke="none" 
	d="
M112.256226,153.881638 
	C112.723488,153.569336 113.523354,153.343811 114.647171,153.141846 
	C114.177025,153.433060 113.382919,153.700729 112.256226,153.881638 
z"/>
<path fill="#9D7C00" opacity="1.000000" stroke="none" 
	d="
M131.897217,87.860260 
	C131.784912,87.719902 131.864883,87.544868 132.101868,87.128479 
	C132.299927,87.119331 132.369659,87.351913 132.366669,87.583557 
	C132.365601,87.665421 132.186996,87.744980 131.897217,87.860260 
z"/>
<path fill="#950D24" opacity="1.000000" stroke="none" 
	d="
M106.829834,150.566620 
	C106.755203,150.884064 106.540634,150.921646 106.433655,150.905731 
	C106.247925,145.811188 106.294083,140.726028 106.029343,135.657120 
	C105.922485,133.611206 105.135651,131.600800 104.379883,129.316956 
	C103.925835,129.049759 103.750175,129.039841 103.311081,129.027771 
	C103.038124,128.257812 103.028595,127.490013 103.216141,126.202095 
	C103.644897,125.474297 103.838348,125.235619 103.993546,124.965935 
	C103.983665,124.551178 103.973785,124.136414 104.170731,123.147385 
	C104.583099,121.702469 104.788635,120.831818 105.032928,119.621407 
	C105.125313,118.828278 105.178947,118.374908 105.232590,117.921539 
	C106.665504,117.571892 108.098427,117.222244 109.887108,116.784317 
	C115.156158,116.790970 117.509529,119.545059 118.071976,124.579300 
	C118.108711,124.960953 118.039177,125.451706 118.024338,125.698830 
	C118.013832,126.119591 118.018166,126.293221 117.981888,127.001076 
	C118.756729,128.590988 119.572197,129.646698 120.696342,131.102005 
	C115.405411,131.275558 112.066994,133.274475 112.907547,139.064163 
	C113.048431,140.034561 112.926147,141.043152 112.704193,142.145020 
	C112.069939,142.530930 111.656960,142.805923 111.166161,142.641159 
	C110.710892,139.498276 110.333443,136.795166 109.645271,134.358154 
	C109.515884,138.419937 109.697220,142.215607 109.895020,146.247498 
	C109.911491,146.483719 109.962257,146.954590 109.962265,146.954590 
	C108.942993,148.052795 107.923729,149.151001 106.829834,150.566620 
M112.627258,129.006424 
	C113.242935,127.992661 113.858620,126.978897 114.772728,125.444626 
	C114.433105,124.291748 114.093483,123.138870 113.753860,121.985992 
	C113.142853,122.367851 112.531837,122.749710 111.330200,123.087151 
	C110.937950,123.119797 110.545708,123.152443 109.600090,122.977531 
	C105.899712,122.205055 107.463623,124.350746 107.325035,126.293213 
	C108.099693,127.987556 108.874352,129.681900 109.649010,131.376236 
	C110.469719,130.808594 111.290421,130.240952 112.124016,129.540573 
	C112.124016,129.540573 112.041962,129.435455 112.627258,129.006424 
z"/>
<path fill="#765A01" opacity="1.000000" stroke="none" 
	d="
M105.156189,117.515656 
	C105.178947,118.374908 105.125313,118.828278 104.711227,119.677002 
	C103.564072,120.434105 102.777374,120.795868 101.990677,121.157639 
	C101.990685,121.157639 101.601746,121.056213 101.326706,120.767593 
	C100.909309,120.231056 100.766960,119.983124 100.624603,119.735199 
	C100.347939,120.151962 100.071274,120.568726 99.794601,120.985489 
	C98.483078,120.420380 96.227188,120.079788 96.029861,119.249779 
	C95.322197,116.273277 95.090820,113.130951 95.094215,110.051773 
	C95.098152,106.480553 96.751106,103.596107 100.512222,103.070633 
	C102.784271,102.753197 106.040131,108.253853 105.732254,111.264999 
	C105.532875,113.215111 105.298492,115.161644 105.156189,117.515656 
z"/>
<path fill="#950D24" opacity="1.000000" stroke="none" 
	d="
M107.154312,96.191605 
	C111.607292,96.406898 116.060265,96.622200 121.309494,96.875999 
	C119.758659,98.007072 118.906876,98.628304 117.926926,99.531639 
	C115.866875,99.889786 113.934998,99.965820 111.583588,100.063049 
	C109.612282,99.469063 108.060493,98.853905 106.334869,97.828285 
	C106.492126,97.009087 106.823227,96.600342 107.154312,96.191605 
z"/>
<path fill="#6B3D06" opacity="1.000000" stroke="none" 
	d="
M106.792923,96.169930 
	C106.823227,96.600342 106.492126,97.009087 106.023026,97.640808 
	C105.066910,98.487862 104.248810,99.111938 103.120773,99.787338 
	C104.017731,98.608528 105.224632,97.378395 106.792923,96.169930 
z"/>
<path fill="#86141B" opacity="1.000000" stroke="none" 
	d="
M102.140503,121.390411 
	C102.777374,120.795868 103.564072,120.434105 104.672470,120.016754 
	C104.788635,120.831818 104.583099,121.702469 104.158951,122.836456 
	C103.390343,122.607590 102.840332,122.115395 102.140503,121.390411 
z"/>
<path fill="#103F8C" opacity="1.000000" stroke="none" 
	d="
M99.916641,121.241966 
	C100.071274,120.568726 100.347939,120.151962 100.624603,119.735199 
	C100.766960,119.983124 100.909309,120.231056 101.128853,120.732307 
	C100.816925,121.156570 100.427795,121.327507 99.916641,121.241966 
z"/>
<path fill="#86141B" opacity="1.000000" stroke="none" 
	d="
M103.809013,125.105171 
	C103.838348,125.235619 103.644897,125.474297 103.228317,125.818619 
	C103.195152,125.684021 103.388832,125.447067 103.809013,125.105171 
z"/>
<path fill="#B75895" opacity="1.000000" stroke="none" 
	d="
M120.965935,113.059898 
	C119.342598,113.159370 117.719261,113.258842 116.981911,113.304024 
	C116.219200,110.491013 115.585358,108.153290 114.703445,104.900658 
	C118.105057,107.283150 120.916801,109.862053 124.320770,105.708542 
	C125.035507,108.476921 125.523445,110.366852 125.861664,112.782257 
	C124.129936,113.225128 122.547935,113.142517 120.965935,113.059898 
z"/>
<path fill="#C45E9F" opacity="1.000000" stroke="none" 
	d="
M121.040672,113.328384 
	C122.547935,113.142517 124.129936,113.225128 125.883987,113.166252 
	C126.235435,116.031822 126.414825,119.038879 126.598991,122.125854 
	C123.333817,120.904953 121.033440,120.044800 118.688042,119.167809 
	C119.491730,117.323288 120.303566,115.460075 121.040672,113.328384 
z"/>
<path fill="#675724" opacity="1.000000" stroke="none" 
	d="
M123.549820,102.704819 
	C124.443825,103.057083 125.128044,103.610649 125.812263,104.164223 
	C125.547821,104.427948 125.283386,104.691666 125.018944,104.955391 
	C124.459305,104.272301 123.899673,103.589211 123.549820,102.704819 
z"/>
<path fill="#8B6A03" opacity="1.000000" stroke="none" 
	d="
M113.667397,86.057831 
	C113.387650,86.464554 112.811386,86.836586 112.040115,87.025185 
	C112.353699,86.568878 112.862289,86.296005 113.667397,86.057831 
z"/>
<path fill="#B00225" opacity="1.000000" stroke="none" 
	d="
M98.068924,149.858810 
	C98.113731,150.106262 97.831596,150.346329 97.334824,150.758820 
	C97.327446,150.571304 97.534714,150.211365 98.068924,149.858810 
z"/>
<path fill="#A30C21" opacity="1.000000" stroke="none" 
	d="
M99.039055,87.098328 
	C101.364845,81.636024 103.031204,85.954926 104.942123,87.741714 
	C104.266617,87.984207 103.534073,87.977448 102.179451,87.780884 
	C100.717934,87.426826 99.878494,87.262581 99.039055,87.098328 
z"/>
<path fill="#86141B" opacity="1.000000" stroke="none" 
	d="
M99.022598,87.326973 
	C99.878494,87.262581 100.717934,87.426826 101.813614,87.799629 
	C101.586273,88.308418 101.102692,88.608650 100.334007,88.965080 
	C99.869278,89.011475 99.689651,89.001663 99.234131,88.744743 
	C98.958237,88.497627 98.960609,88.011803 98.960609,88.011803 
	C98.960609,88.011803 99.006142,87.555611 99.022598,87.326973 
z"/>
<path fill="#8B6A03" opacity="1.000000" stroke="none" 
	d="
M119.487244,92.506409 
	C119.479271,92.486603 119.495209,92.526207 119.487244,92.506409 
z"/>
<path fill="#A30C21" opacity="1.000000" stroke="none" 
	d="
M107.224464,87.979324 
	C107.166107,87.749390 107.397224,87.649719 107.798248,87.773117 
	C107.911560,87.842323 107.457344,87.955711 107.224464,87.979324 
z"/>
<path fill="#A30C21" opacity="1.000000" stroke="none" 
	d="
M98.782684,88.045044 
	C98.960609,88.011803 98.958237,88.497627 98.964333,88.740211 
	C98.848534,88.681290 98.726639,88.379784 98.782684,88.045044 
z"/>
<path fill="#AFADAE" opacity="1.000000" stroke="none" 
	d="
M79.669373,131.077423 
	C80.011551,133.680115 80.223015,136.333038 79.958717,138.937683 
	C79.859497,139.915482 78.655075,140.781128 77.954529,141.697906 
	C77.344612,140.712814 76.407593,139.791122 76.201553,138.727768 
	C75.893593,137.138412 76.100098,135.449387 76.078262,133.342667 
	C77.162354,132.291214 78.255928,131.699844 79.669373,131.077423 
z"/>
<path fill="#FABD00" opacity="1.000000" stroke="none" 
	d="
M75.021942,133.207123 
	C74.802673,133.816452 74.231506,134.443588 73.320129,135.059601 
	C73.543297,134.440628 74.106674,133.832779 75.021942,133.207123 
z"/>
<path fill="#9C9275" opacity="1.000000" stroke="none" 
	d="
M140.845673,151.770630 
	C140.256622,152.012390 139.498413,151.990707 138.362076,152.003250 
	C138.881485,151.860718 139.778992,151.683975 140.845673,151.770630 
z"/>
<path fill="#845008" opacity="1.000000" stroke="none" 
	d="
M112.925468,142.034103 
	C112.926147,141.043152 113.048431,140.034561 112.907547,139.064163 
	C112.066994,133.274475 115.405411,131.275558 120.696342,131.102005 
	C119.572197,129.646698 118.756729,128.590988 117.989029,127.261513 
	C121.990761,126.987732 125.944740,126.987732 131.362595,126.987732 
	C130.401672,133.905228 129.513550,140.298523 128.035126,146.869385 
	C127.257507,147.068497 127.070206,147.090042 126.882912,147.111588 
	C126.485611,147.136459 126.088318,147.161331 125.174286,146.921906 
	C123.770721,145.437439 122.883904,144.217285 122.317429,142.983826 
	C123.504059,142.686020 124.370346,142.401520 125.676628,141.972504 
	C124.563919,140.589966 123.742493,139.569351 122.351273,137.840759 
	C122.193199,140.182053 122.097977,141.592407 121.745651,142.915894 
	C119.677879,142.327682 117.867218,141.826355 115.163773,141.077820 
	C115.397911,142.747162 115.703621,144.926819 116.009338,147.106476 
	C115.526619,147.083771 115.043900,147.061081 114.201721,147.088043 
	C113.842255,147.137726 113.873245,147.069489 113.950417,146.693939 
	C113.660217,144.890289 113.292847,143.462189 112.925468,142.034103 
z"/>
<path fill="#8A350F" opacity="1.000000" stroke="none" 
	d="
M116.088425,147.445160 
	C115.703621,144.926819 115.397911,142.747162 115.163773,141.077820 
	C117.867218,141.826355 119.677879,142.327682 121.744278,142.914520 
	C122.000000,143.000000 121.997078,142.997116 121.997078,142.997116 
	C122.883904,144.217285 123.770721,145.437439 124.875648,146.923248 
	C124.498001,148.309250 123.902252,149.429596 123.110291,150.759857 
	C120.665222,149.907776 118.416374,148.845810 116.088425,147.445160 
z"/>
<path fill="#8A350F" opacity="1.000000" stroke="none" 
	d="
M127.018463,147.199036 
	C127.070206,147.090042 127.257507,147.068497 127.727325,147.038910 
	C128.009857,147.030853 127.618866,147.295593 127.618866,147.295593 
	C127.618866,147.295593 127.154007,147.286484 127.018463,147.199036 
z"/>
<path fill="#AA1526" opacity="1.000000" stroke="none" 
	d="
M112.704193,142.145020 
	C113.292847,143.462189 113.660217,144.890289 113.987885,146.694534 
	C113.569954,147.085373 113.191727,147.100037 112.435974,146.558197 
	C111.859917,145.431320 111.661385,144.860931 111.427124,144.153748 
	C111.274658,143.714462 111.225525,143.402451 111.243980,143.080917 
	C111.656960,142.805923 112.069939,142.530930 112.704193,142.145020 
z"/>
<path fill="#A6A08F" opacity="1.000000" stroke="none" 
	d="
M111.462860,144.290558 
	C111.661385,144.860931 111.859917,145.431320 112.151169,146.443710 
	C111.736969,146.914978 111.230034,146.944229 110.342682,146.964050 
	C109.962257,146.954590 109.911491,146.483719 109.965103,146.116425 
	C110.018715,145.749146 110.016273,145.452225 110.288849,145.298065 
	C110.861908,144.859467 111.162384,144.575012 111.462860,144.290558 
z"/>
<path fill="#103F8C" opacity="1.000000" stroke="none" 
	d="
M112.111130,129.673309 
	C111.290421,130.240952 110.469719,130.808594 109.649010,131.376236 
	C108.874352,129.681900 108.099693,127.987556 107.989883,126.152107 
	C109.113464,125.994263 109.572189,125.977524 110.051270,126.352097 
	C110.751450,127.720039 111.431290,128.696671 112.111130,129.673309 
z"/>
<path fill="#957002" opacity="1.000000" stroke="none" 
	d="
M110.016273,145.452225 
	C110.016273,145.452225 110.018715,145.749146 109.948639,145.880203 
	C109.697220,142.215607 109.515884,138.419937 109.672302,134.812897 
	C110.012123,138.485077 110.014198,141.968643 110.016273,145.452225 
z"/>
<path fill="#765A01" opacity="1.000000" stroke="none" 
	d="
M110.288849,145.298065 
	C110.014198,141.968643 110.012123,138.485077 109.983017,134.546768 
	C110.333443,136.795166 110.710892,139.498276 111.166161,142.641159 
	C111.225525,143.402451 111.274658,143.714462 111.427132,144.153748 
	C111.162384,144.575012 110.861908,144.859467 110.288849,145.298065 
z"/>
<path fill="#675724" opacity="1.000000" stroke="none" 
	d="
M111.920822,123.131569 
	C112.531837,122.749710 113.142853,122.367851 113.753860,121.985992 
	C114.093483,123.138870 114.433105,124.291748 114.206764,125.711723 
	C113.089058,125.981026 112.537315,125.983223 111.997299,125.997025 
	C112.009033,126.008636 112.032677,126.031677 112.053864,125.667664 
	C112.023636,124.579628 111.972229,123.855598 111.920822,123.131569 
z"/>
<path fill="#675724" opacity="1.000000" stroke="none" 
	d="
M110.030922,125.960785 
	C109.572189,125.977524 109.113464,125.994263 108.314056,125.961540 
	C107.463623,124.350746 105.899712,122.205055 109.820511,123.433479 
	C110.016159,124.603188 109.991379,125.316956 109.982941,126.013466 
	C109.999275,125.996216 110.030922,125.960785 110.030922,125.960785 
z"/>
<path fill="#675724" opacity="1.000000" stroke="none" 
	d="
M112.117569,129.606934 
	C111.431290,128.696671 110.751450,127.720039 110.051270,126.352097 
	C110.030922,125.960785 109.999275,125.996216 110.326149,126.055542 
	C111.112907,126.087135 111.572792,126.059410 112.032677,126.031677 
	C112.032677,126.031677 112.009033,126.008636 111.960159,126.424767 
	C111.954842,127.705750 111.998398,128.570602 112.041962,129.435455 
	C112.041962,129.435455 112.124016,129.540573 112.117569,129.606934 
z"/>
<path fill="#103F8C" opacity="1.000000" stroke="none" 
	d="
M112.053864,125.667671 
	C111.572792,126.059410 111.112907,126.087135 110.309814,126.072784 
	C109.991379,125.316956 110.016159,124.603188 110.097198,123.537262 
	C110.545708,123.152443 110.937950,123.119797 111.625511,123.109360 
	C111.972229,123.855598 112.023636,124.579628 112.053864,125.667671 
z"/>
<path fill="#27486D" opacity="1.000000" stroke="none" 
	d="
M112.334610,129.220947 
	C111.998398,128.570602 111.954842,127.705750 111.948425,126.413162 
	C112.537315,125.983223 113.089058,125.981026 114.057556,125.971977 
	C113.858620,126.978897 113.242935,127.992661 112.334610,129.220947 
z"/>
<path fill="#8A350F" opacity="1.000000" stroke="none" 
	d="
M122.001373,143.001389 
	C122.097977,141.592407 122.193199,140.182053 122.351273,137.840759 
	C123.742493,139.569351 124.563919,140.589966 125.676628,141.972504 
	C124.370346,142.401520 123.504059,142.686020 122.317429,142.983826 
	C121.997078,142.997116 122.000000,143.000000 122.001373,143.001389 
z"/>
</svg>